<?xml version="1.0" encoding="utf-8"?>
<!-- Generator: Adobe Illustrator 22.1.0, SVG Export Plug-In . SVG Version: 6.00 Build 0)  -->
<svg version="1.1" xmlns="http://www.w3.org/2000/svg" xmlns:xlink="http://www.w3.org/1999/xlink" x="0px" y="0px"
	 viewBox="0 0 344.3 50.5" style="enable-background:new 0 0 344.3 50.5;" xml:space="preserve">
<style type="text/css">
	.st0{fill:#00A9F4;}
	.st1{opacity:0.36;fill:url(#SVGID_1_);}
	.st2{opacity:0.36;fill:url(#SVGID_2_);}
	.st3{fill:#FFFFFF;}
</style>
<g id="Layer_1">
	<circle class="st0" cx="25.3" cy="25.3" r="25.3"/>
	<g>
		<path d="M76.2,35c-1.5,0.5-4.5,1.2-7.4,1.2c-4,0-7-1-9-3c-2-1.9-3.1-4.8-3.1-8.1c0-7.3,5.4-11.5,12.6-11.5c2.9,0,5,0.6,6.1,1l-1,4
			c-1.2-0.6-2.7-1-5.1-1c-4.2,0-7.3,2.4-7.3,7.1c0,4.6,2.9,7.2,7,7.2c1.1,0,2-0.1,2.4-0.3v-4.7H68v-3.9h8.2V35z"/>
		<path d="M84,29.6c0.2,2.1,2.2,3,4.5,3c1.7,0,3.1-0.2,4.4-0.7l0.7,3.4c-1.6,0.7-3.6,1-5.8,1c-5.4,0-8.6-3.1-8.6-8.2
			c0-4.1,2.6-8.6,8.1-8.6c5.2,0,7.1,4,7.1,8c0,0.9-0.1,1.6-0.2,2H84z M89.8,26.2c0-1.2-0.5-3.2-2.8-3.2c-2.1,0-3,1.9-3.1,3.2H89.8z"
			/>
		<path d="M97.4,31.7c0.9,0.6,2.8,1.2,4.3,1.2c1.5,0,2.1-0.5,2.1-1.3s-0.5-1.2-2.3-1.8c-3.3-1.1-4.6-2.9-4.6-4.8
			c0-3,2.6-5.3,6.5-5.3c1.9,0,3.5,0.5,4.5,1l-0.9,3.4c-0.7-0.4-2.1-0.9-3.5-0.9c-1.2,0-1.9,0.5-1.9,1.3c0,0.8,0.6,1.2,2.6,1.8
			c3,1,4.3,2.6,4.3,4.9c0,3-2.3,5.2-6.9,5.2c-2.1,0-4-0.5-5.2-1.1L97.4,31.7z"/>
		<path d="M117.2,15.7V20h3.6v3.7h-3.6v5.8c0,1.9,0.5,2.8,2,2.8c0.7,0,1,0,1.5-0.1l0,3.8c-0.6,0.2-1.8,0.4-3.2,0.4
			c-1.6,0-3-0.6-3.8-1.4c-0.9-1-1.4-2.5-1.4-4.8v-6.6h-2.1V20h2.1v-3L117.2,15.7z"/>
		<path d="M130.9,36.4c-4.7,0-8.3-3.1-8.3-8.3c0-5.2,3.4-8.5,8.6-8.5c4.9,0,8.2,3.4,8.2,8.2C139.4,33.7,135.2,36.4,130.9,36.4
			L130.9,36.4z M131.1,32.8c2,0,3.2-1.9,3.2-4.8c0-2.4-0.9-4.8-3.2-4.8c-2.4,0-3.3,2.4-3.3,4.8C127.8,30.8,128.9,32.8,131.1,32.8
			L131.1,32.8z"/>
		<path d="M142.5,25.3c0-2.4,0-3.9-0.1-5.3h4.3l0.2,3h0.1c0.8-2.4,2.8-3.3,4.3-3.3c0.5,0,0.7,0,1,0.1v4.7c-0.4-0.1-0.8-0.1-1.3-0.1
			c-1.8,0-3.1,1-3.4,2.5c-0.1,0.3-0.1,0.7-0.1,1.1v8.1h-5V25.3z"/>
		<path d="M158.5,29.6c0.2,2.1,2.2,3,4.5,3c1.7,0,3.1-0.2,4.4-0.7l0.7,3.4c-1.6,0.7-3.6,1-5.8,1c-5.4,0-8.6-3.1-8.6-8.2
			c0-4.1,2.6-8.6,8.1-8.6c5.2,0,7.1,4,7.1,8c0,0.9-0.1,1.6-0.2,2H158.5z M164.4,26.2c0-1.2-0.5-3.2-2.8-3.2c-2.1,0-3,1.9-3.1,3.2
			H164.4z"/>
		<path d="M171.9,31.7c0.9,0.6,2.8,1.2,4.3,1.2c1.5,0,2.1-0.5,2.1-1.3s-0.5-1.2-2.3-1.8c-3.3-1.1-4.6-2.9-4.6-4.8
			c0-3,2.6-5.3,6.5-5.3c1.9,0,3.5,0.5,4.5,1l-0.9,3.4c-0.7-0.4-2.1-0.9-3.5-0.9c-1.2,0-1.9,0.5-1.9,1.3c0,0.8,0.6,1.2,2.6,1.8
			c3,1,4.3,2.6,4.3,4.9c0,3-2.3,5.2-6.9,5.2c-2.1,0-4-0.5-5.2-1.1L171.9,31.7z"/>
		<path d="M208.4,12.7v18.5c0,1.8,0.1,3.7,0.1,4.8h-4.4l-0.2-2.3h-0.1c-1,1.8-3,2.7-5,2.7c-3.8,0-6.9-3.2-6.9-8.2
			c0-5.4,3.3-8.5,7.2-8.5c2,0,3.5,0.7,4.2,1.8h0.1v-8.7H208.4z M203.4,26.8c0-0.3,0-0.6-0.1-0.9c-0.3-1.3-1.4-2.4-2.9-2.4
			c-2.3,0-3.4,2-3.4,4.6c0,2.7,1.3,4.4,3.4,4.4c1.4,0,2.6-1,2.9-2.4c0.1-0.3,0.1-0.7,0.1-1.1V26.8z"/>
		<path d="M216.2,29.6c0.2,2.1,2.2,3,4.5,3c1.7,0,3.1-0.2,4.4-0.7l0.7,3.4c-1.6,0.7-3.6,1-5.8,1c-5.4,0-8.6-3.1-8.6-8.2
			c0-4.1,2.6-8.6,8.1-8.6c5.2,0,7.1,4,7.1,8c0,0.9-0.1,1.6-0.2,2H216.2z M222.1,26.2c0-1.2-0.5-3.2-2.8-3.2c-2.1,0-3,1.9-3.1,3.2
			H222.1z"/>
		<path d="M239.5,18.2h-6V14h17v4.2h-6v17.9h-5V18.2z"/>
		<path d="M264.2,32.2c0,1.5,0.1,3,0.3,3.9H260l-0.3-1.6h-0.1c-1,1.3-2.7,2-4.6,2c-3.2,0-5.2-2.4-5.2-4.9c0-4.2,3.7-6.1,9.4-6.1
			v-0.2c0-0.9-0.5-2.1-2.9-2.1c-1.6,0-3.4,0.6-4.4,1.2l-0.9-3.2c1.1-0.6,3.3-1.4,6.2-1.4c5.3,0,7,3.1,7,6.9V32.2z M259.4,28.5
			c-2.6,0-4.7,0.6-4.7,2.5c0,1.3,0.9,1.9,2,1.9c1.2,0,2.3-0.8,2.6-1.8c0.1-0.3,0.1-0.6,0.1-0.9V28.5z"/>
		<path d="M268.2,12.7h5v23.3h-5V12.7z"/>
		<path d="M281,29.6c0.2,2.1,2.2,3,4.5,3c1.7,0,3.1-0.2,4.4-0.7l0.7,3.4c-1.6,0.7-3.6,1-5.8,1c-5.4,0-8.6-3.1-8.6-8.2
			c0-4.1,2.6-8.6,8.1-8.6c5.2,0,7.1,4,7.1,8c0,0.9-0.1,1.6-0.2,2H281z M286.9,26.2c0-1.2-0.5-3.2-2.8-3.2c-2.1,0-3,1.9-3.1,3.2
			H286.9z"/>
		<path d="M294.5,25.1c0-2-0.1-3.7-0.1-5.1h4.3l0.2,2.2h0.1c0.7-1,2.3-2.6,5-2.6c3.3,0,5.7,2.2,5.7,6.9v9.5h-5v-8.9
			c0-2.1-0.7-3.5-2.5-3.5c-1.4,0-2.2,1-2.6,1.9c-0.1,0.3-0.2,0.8-0.2,1.2v9.2h-5V25.1z"/>
		<path d="M319.1,15.7V20h3.6v3.7h-3.6v5.8c0,1.9,0.5,2.8,2,2.8c0.7,0,1,0,1.5-0.1l0,3.8c-0.6,0.2-1.8,0.4-3.2,0.4
			c-1.6,0-3-0.6-3.8-1.4c-0.9-1-1.4-2.5-1.4-4.8v-6.6h-2.1V20h2.1v-3L319.1,15.7z"/>
		<path d="M332.8,36.4c-4.7,0-8.3-3.1-8.3-8.3c0-5.2,3.4-8.5,8.6-8.5c4.9,0,8.2,3.4,8.2,8.2C341.2,33.7,337,36.4,332.8,36.4
			L332.8,36.4z M332.9,32.8c2,0,3.2-1.9,3.2-4.8c0-2.4-0.9-4.8-3.2-4.8c-2.4,0-3.3,2.4-3.3,4.8C329.6,30.8,330.8,32.8,332.9,32.8
			L332.9,32.8z"/>
	</g>
</g>
<g id="Capa_2">
	<linearGradient id="SVGID_1_" gradientUnits="userSpaceOnUse" x1="22.8709" y1="43.0328" x2="12.7347" y2="15.4689">
		<stop  offset="0" style="stop-color:#FFFFFF"/>
		<stop  offset="1" style="stop-color:#000000"/>
	</linearGradient>
	<path class="st1" d="M36.3,48.1L23.9,15.2c0,0-11.5,1.6-11.8,1.7c-0.3,0.1-5.2,9.8-5.2,9.8s1.3,17.8,12,22.7c0.7,0.3,1.3,0.6,2,0.8
		c1.5,0.3,2.9,0.4,4.5,0.4C29.2,50.6,32.9,49.7,36.3,48.1z"/>
	<linearGradient id="SVGID_2_" gradientUnits="userSpaceOnUse" x1="40.5446" y1="39.7059" x2="32.9852" y2="13.6305">
		<stop  offset="0" style="stop-color:#FFFFFF"/>
		<stop  offset="1" style="stop-color:#000000"/>
	</linearGradient>
	<path class="st2" d="M26.6,18.3l0.3,0.8l9.3,29c4.8-2.3,8.7-6.1,11.3-10.8l-5.4-19H26.6z"/>
	<g>
		<path class="st3" d="M24.5,33.8c-1.4,0.5-4.1,1.1-6.7,1.1c-3.7,0-6.4-0.9-8.2-2.7c-1.8-1.8-2.9-4.4-2.9-7.4
			c0-6.7,4.9-10.6,11.5-10.6c2.6,0,4.6,0.5,5.6,1l-1,3.7c-1.1-0.5-2.5-0.9-4.7-0.9c-3.8,0-6.7,2.2-6.7,6.5c0,4.2,2.6,6.6,6.4,6.6
			c1,0,1.9-0.1,2.2-0.3v-4.3H17v-3.6h7.5V33.8z"/>
		<path class="st3" d="M32,18.3h-5.5v-3.8h15.5v3.8h-5.5v16.4H32V18.3z"/>
	</g>
</g>
</svg>
